REM DIRINDEX 1\2,1\3,1\4,1\5
REM DIRNAME cjc005,folder01,folder02,folder03,folder04
TITLE ""
FILE "P1Q_t_0122-0131.mp3" MP3
  TRACK 01 AUDIO
    TITLE "3:cjc005_1267"
    INDEX 01 00:00:00
  TRACK 02 AUDIO
    TITLE "0:"
    INDEX 01 00:01:22
  TRACK 03 AUDIO
    TITLE "4:cjc005_1268"
    INDEX 01 00:01:50
  TRACK 04 AUDIO
    TITLE "0:"
    INDEX 01 00:03:04
  TRACK 05 AUDIO
    TITLE "5:cjc005_1269"
    INDEX 01 00:03:31
  TRACK 06 AUDIO
    TITLE "0:"
    INDEX 01 00:08:54
  TRACK 07 AUDIO
    TITLE "3:cjc005_1270"
    INDEX 01 00:09:34
  TRACK 08 AUDIO
    TITLE "0:"
    INDEX 01 00:10:57
  TRACK 09 AUDIO
    TITLE "4:cjc005_1271"
    INDEX 01 00:11:09
  TRACK 10 AUDIO
    TITLE "0:"
    INDEX 01 00:12:30
  TRACK 11 AUDIO
    TITLE "5:cjc005_1272"
    INDEX 01 00:12:60
  TRACK 12 AUDIO
    TITLE "0:"
    INDEX 01 00:16:30
  TRACK 13 AUDIO
    TITLE "3:cjc005_1273"
    INDEX 01 00:17:06
  TRACK 14 AUDIO
    TITLE "0:"
    INDEX 01 00:18:15
  TRACK 15 AUDIO
    TITLE "4:cjc005_1274"
    INDEX 01 00:18:48
  TRACK 16 AUDIO
    TITLE "0:"
    INDEX 01 00:19:46
  TRACK 17 AUDIO
    TITLE "5:cjc005_1275"
    INDEX 01 00:19:71
  TRACK 18 AUDIO
    TITLE "0:"
    INDEX 01 00:22:70
  TRACK 19 AUDIO
    TITLE "3:cjc005_1276"
    INDEX 01 00:23:48
  TRACK 20 AUDIO
    TITLE "0:"
    INDEX 01 00:25:09
  TRACK 21 AUDIO
    TITLE "4:cjc005_1277"
    INDEX 01 00:25:33
  TRACK 22 AUDIO
    TITLE "0:"
    INDEX 01 00:26:64
  TRACK 23 AUDIO
    TITLE "5:cjc005_1278"
    INDEX 01 00:27:14
  TRACK 24 AUDIO
    TITLE "0:"
    INDEX 01 00:31:57
  TRACK 25 AUDIO
    TITLE "3:cjc005_1279"
    INDEX 01 00:32:35
  TRACK 26 AUDIO
    TITLE "0:"
    INDEX 01 00:33:46
  TRACK 27 AUDIO
    TITLE "4:cjc005_1280"
    INDEX 01 00:33:69
  TRACK 28 AUDIO
    TITLE "0:"
    INDEX 01 00:35:00
  TRACK 29 AUDIO
    TITLE "5:cjc005_1281"
    INDEX 01 00:35:25
  TRACK 30 AUDIO
    TITLE "0:"
    INDEX 01 00:39:00
  TRACK 31 AUDIO
    TITLE "3:cjc005_1282"
    INDEX 01 00:39:56
  TRACK 32 AUDIO
    TITLE "0:"
    INDEX 01 00:41:06
  TRACK 33 AUDIO
    TITLE "4:cjc005_1283"
    INDEX 01 00:41:36
  TRACK 34 AUDIO
    TITLE "0:"
    INDEX 01 00:42:57
  TRACK 35 AUDIO
    TITLE "5:cjc005_1284"
    INDEX 01 00:43:09
  TRACK 36 AUDIO
    TITLE "0:"
    INDEX 01 00:46:51
  TRACK 37 AUDIO
    TITLE "3:cjc005_1285"
    INDEX 01 00:47:27
  TRACK 38 AUDIO
    TITLE "0:"
    INDEX 01 00:48:30
  TRACK 39 AUDIO
    TITLE "4:cjc005_1286"
    INDEX 01 00:48:53
  TRACK 40 AUDIO
    TITLE "0:"
    INDEX 01 00:49:63
  TRACK 41 AUDIO
    TITLE "5:cjc005_1287"
    INDEX 01 00:50:07
  TRACK 42 AUDIO
    TITLE "0:"
    INDEX 01 00:53:27
  TRACK 43 AUDIO
    TITLE "3:cjc005_1288"
    INDEX 01 00:54:03
  TRACK 44 AUDIO
    TITLE "0:"
    INDEX 01 00:55:24
  TRACK 45 AUDIO
    TITLE "4:cjc005_1289"
    INDEX 01 00:55:48
  TRACK 46 AUDIO
    TITLE "0:"
    INDEX 01 00:56:61
  TRACK 47 AUDIO
    TITLE "5:cjc005_1290"
    INDEX 01 00:57:07
  TRACK 48 AUDIO
    TITLE "0:"
    INDEX 01 01:01:19
  TRACK 49 AUDIO
    TITLE "3:cjc005_1291"
    INDEX 01 01:01:62
  TRACK 50 AUDIO
    TITLE "0:"
    INDEX 01 01:03:26
  TRACK 51 AUDIO
    TITLE "4:cjc005_1292"
    INDEX 01 01:03:57
  TRACK 52 AUDIO
    TITLE "0:"
    INDEX 01 01:05:19
  TRACK 53 AUDIO
    TITLE "5:cjc005_1293"
    INDEX 01 01:05:42
  TRACK 54 AUDIO
    TITLE "0:"
    INDEX 01 01:10:22
  TRACK 55 AUDIO
    TITLE "3:cjc005_1294"
    INDEX 01 01:11:07
  TRACK 56 AUDIO
    TITLE "0:"
    INDEX 01 01:12:42
  TRACK 57 AUDIO
    TITLE "4:cjc005_1295"
    INDEX 01 01:12:64
  TRACK 58 AUDIO
    TITLE "0:"
    INDEX 01 01:14:27
  TRACK 59 AUDIO
    TITLE "5:cjc005_1296"
    INDEX 01 01:14:55
  TRACK 60 AUDIO
    TITLE "0:"
    INDEX 01 01:18:27
